# File created by Blade
# Date/Time:  Fri Jan 16 17:18:57 2015
#---------------------------------------------------------
:version 1.10
:name HOM
:units
  mass 1.0
  length 1.000000
  angle deg
:documentation
     Acclaim Skeleton File
:root
   axis xyz
   order TX TY TZ RX RY RZ
   position 0.000000 0.000000 0.000000
   orientation 0 0 0
:bonedata
   begin
      id 1
      name Spine_dum
      direction 0.000000 1.000000 0.000000
      length 7.170412
      axis 0.0 0.0 0.0 xyz
   end
   begin
      id 2
      name LeftUpLeg_dum
      direction 1.000000 0.000000 0.000000
      length 4.318350
      axis 0.0 0.0 0.0 xyz
   end
   begin
      id 3
      name RightUpLeg_dum
      direction -1.000000 0.000000 0.000000
      length 4.318350
      axis 0.0 0.0 0.0 xyz
   end
   begin
      id 4
      name Spine
      direction 0.000000 1.000000 0.000000
      length 0.000000
      axis 0.0 0.0 0.0 xyz
      dof rx ry rz
   end
   begin
      id 5
      name Spine_dum1
      direction 0.000000 1.000000 0.000000
      length 14.276153
      axis 0.0 0.0 0.0 xyz
   end
   begin
      id 6
      name Spine_dum2
      direction 0.000000 1.000000 0.000000
      length 10.718243
      axis 0.0 0.0 0.0 xyz
   end
   begin
      id 7
      name Spine_dum3
      direction 0.000000 1.000000 0.000000
      length 10.718243
      axis 0.0 0.0 0.0 xyz
   end
   begin
      id 8
      name Head
      direction 0.000000 1.000000 0.000000
      length 4.527550
      axis 0.0 0.0 0.0 xyz
      dof rx ry rz
   end
   begin
      id 9
      name LeftShoulder
      direction 1.000000 0.000000 0.000000
      length 7.058872
      axis 0.0 0.0 -90.0 xyz
      dof rx ry rz
   end
   begin
      id 10
      name LeftArm
      direction 1.000000 0.000000 0.000000
      length 10.955525
      axis 0.0 0.0 -90.0 xyz
      dof rx ry rz
   end
   begin
      id 11
      name LeftForeArm
      direction 1.000000 0.000000 0.000000
      length 8.193716
      axis 0.0 0.0 -90.0 xyz
      dof ry rz rx
   end
   begin
      id 12
      name LeftHand
      direction 0.000000 0.000000 0.000000
      length 0.000000
      axis 0.0 0.0 -90.0 xyz
      dof rx ry rz
   end
   begin
      id 13
      name LeftHand_dum1
      direction 0.000000 0.000000 0.000000
      length 0.000000
      axis 0.0 0.0 -90.0 xyz
   end
   begin
      id 14
      name LeftHand_dum2
      direction 1.000000 0.000000 0.000000
      length 3.937000
      axis 0.0 0.0 -90.0 xyz
   end
   begin
      id 15
      name LeftHandThumb1
      direction 0.000000 0.000000 1.000000
      length 3.937000
      axis 0.0 0.0 -90.0 xyz
      dof rx rz ry
   end
   begin
      id 16
      name RightShoulder
      direction -1.000000 0.000000 0.000000
      length 7.058872
      axis 0.0 0.0 90.0 xyz
      dof rx ry rz
   end
   begin
      id 17
      name RightArm
      direction -1.000000 0.000000 0.000000
      length 10.955525
      axis 0.0 0.0 90.0 xyz
      dof rx ry rz
   end
   begin
      id 18
      name RightForeArm
      direction -1.000000 0.000000 0.000000
      length 8.193716
      axis 0.0 0.0 90.0 xyz
      dof ry rz rx
   end
   begin
      id 19
      name RightHand
      direction 0.000000 0.000000 0.000000
      length 0.000000
      axis 0.0 0.0 90.0 xyz
      dof rx ry rz
   end
   begin
      id 20
      name RightHand_dum1
      direction 0.000000 0.000000 0.000000
      length 0.000000
      axis 0.0 0.0 90.0 xyz
   end
   begin
      id 21
      name RightHand_dum2
      direction -1.000000 0.000000 0.000000
      length 3.937000
      axis 0.0 0.0 90.0 xyz
   end
   begin
      id 22
      name RightHandThumb1
      direction 0.000000 0.000000 1.000000
      length 3.937000
      axis 0.0 0.0 90.0 xyz
      dof rx rz ry
   end
   begin
      id 23
      name LeftUpLeg
      direction 0.000000 -1.000000 0.000000
      length 17.323638
      axis 0.0 0.0 0.0 xyz
      dof rx ry rz
   end
   begin
      id 24
      name LeftLeg
      direction 0.000000 -1.000000 0.000000
      length 16.270368
      axis 0.0 0.0 0.0 xyz
      dof rx ry rz
   end
   begin
      id 25
      name LeftFoot
      direction 0.000000 -0.258819 0.965926
      length 4.922846
      axis 15.0 0.0 0.0 xyz
      dof rx ry rz
   end
   begin
      id 26
      name LeftToeBase
      direction 0.000000 0.000000 1.000000
      length 2.952750
      axis 0.0 0.0 0.0 xyz
      dof rx ry rz
   end
   begin
      id 27
      name RightUpLeg
      direction 0.000000 -1.000000 0.000000
      length 17.323638
      axis 0.0 0.0 0.0 xyz
      dof rx ry rz
   end
   begin
      id 28
      name RightLeg
      direction 0.000000 -1.000000 0.000000
      length 16.270368
      axis 0.0 0.0 0.0 xyz
      dof rx ry rz
   end
   begin
      id 29
      name RightFoot
      direction 0.000000 -0.258819 0.965926
      length 4.922846
      axis 15.0 0.0 0.0 xyz
      dof rx ry rz
   end
   begin
      id 30
      name RightToeBase
      direction 0.000000 0.000000 1.000000
      length 2.952750
      axis 0.0 0.0 0.0 xyz
      dof rx ry rz
   end
:hierarchy
   begin
      root Spine_dum LeftUpLeg_dum RightUpLeg_dum
      Spine_dum Spine
      LeftUpLeg_dum LeftUpLeg
      RightUpLeg_dum RightUpLeg
      Spine Spine_dum1 Spine_dum2 Spine_dum3
      Spine_dum1 Head
      Spine_dum2 LeftShoulder
      Spine_dum3 RightShoulder
      LeftShoulder LeftArm
      LeftArm LeftForeArm
      LeftForeArm LeftHand
      LeftHand LeftHand_dum1 LeftHand_dum2
      LeftHand_dum1 LeftHandThumb1
      RightShoulder RightArm
      RightArm RightForeArm
      RightForeArm RightHand
      RightHand RightHand_dum1 RightHand_dum2
      RightHand_dum1 RightHandThumb1
      LeftUpLeg LeftLeg
      LeftLeg LeftFoot
      LeftFoot LeftToeBase
      RightUpLeg RightLeg
      RightLeg RightFoot
      RightFoot RightToeBase
   end

# File created by Blade
# Date/Time:  Fri Jan 16 17:19:08 2015
# Frame Rate: 120.000 fps
#------------------------------------------------------
:FULLY-SPECIFIED
:DEGREES
817
root -5.511753 35.222298 -9.645754 -1.790006 -5.530734 -5.895917
Spine -1.836102 -0.694891 10.586323
Head 3.772530 4.227288 -9.197690
LeftShoulder -20.373199 13.908403 -16.130986
LeftArm 20.475888 -5.096803 -74.361208
LeftForeArm 13.961882 -0.000000 11.273995
LeftHand 0.104581 0.000000 -5.236951
LeftHandThumb1 -26.253704 0.000000 33.147579
RightShoulder -3.050985 -0.639959 -8.401247
RightArm 21.021964 -41.364320 18.766264
RightForeArm 15.718461 -0.000000 113.732155
RightHand 9.282292 -0.000000 12.744645
RightHandThumb1 -24.326973 -0.000000 -32.862282
LeftUpLeg 12.446422 14.613738 7.528639
LeftLeg -9.079617 -0.000000 0.000000
LeftFoot -15.891523 27.278516 -8.975761
LeftToeBase 22.399637 -0.000000 -0.000000
RightUpLeg 9.150273 -3.463859 4.407871
RightLeg -5.123038 -0.000000 0.000000
RightFoot -4.308797 -28.887957 3.347651
RightToeBase 13.757533 -0.000000 -0.000000
818
root -5.510407 35.222348 -9.646815 -1.785832 -5.513009 -5.898033
Spine -1.849574 -0.696273 10.589205
Head 3.795071 4.205286 -9.117469
LeftShoulder -20.347247 13.886584 -16.096348
LeftArm 20.475214 -5.102365 -74.380661
LeftForeArm 13.995188 -0.000000 11.253461
LeftHand 0.121214 0.000000 -5.233886
LeftHandThumb1 -26.253704 0.000000 33.147579
RightShoulder -3.006196 -0.705840 -8.414802
RightArm 21.569925 -41.978649 18.181100
RightForeArm 15.577823 -0.000000 114.042109
RightHand 9.225743 -0.000000 13.073309
RightHandThumb1 -24.326973 -0.000000 -32.862282
LeftUpLeg 12.437297 14.623506 7.529163
LeftLeg -9.082250 -0.000000 0.000000
LeftFoot -15.885469 27.258155 -8.966744
LeftToeBase 22.394938 -0.000000 -0.000000
RightUpLeg 9.143959 -3.465646 4.406766
RightLeg -5.116898 -0.000000 0.000000
RightFoot -4.320679 -28.880562 3.371185
RightToeBase 13.768335 -0.000000 -0.000000
819
root -5.509347 35.222132 -9.648127 -1.779667 -5.498670 -5.901574
Spine -1.861664 -0.686979 10.594015
Head 3.811301 4.181076 -9.040508
LeftShoulder -20.322365 13.898675 -16.084597
LeftArm 20.515084 -5.126245 -74.391802
LeftForeArm 14.033281 -0.000000 11.230190
LeftHand 0.165469 -0.000000 -5.236690
LeftHandThumb1 -26.253704 0.000000 33.147579
RightShoulder -2.961165 -0.739597 -8.457451
RightArm 22.004930 -42.518530 17.754300
RightForeArm 15.746246 -0.000000 114.281627
RightHand 9.231854 -0.000000 13.672853
RightHandThumb1 -24.326973 -0.000000 -32.862282
LeftUpLeg 12.433806 14.618287 7.527662
LeftLeg -9.102050 -0.000000 0.000000
LeftFoot -15.879830 27.265554 -8.964602
LeftToeBase 22.402743 -0.000000 -0.000000
RightUpLeg 9.133927 -3.472782 4.409569
RightLeg -5.112442 -0.000000 0.000000
RightFoot -4.325601 -28.884796 3.385312
RightToeBase 13.776323 -0.000000 -0.000000
820
root -5.509325 35.222049 -9.648978 -1.782085 -5.474104 -5.901640
Spine -1.868892 -0.685407 10.581894
Head 3.837607 4.139153 -8.936905
LeftShoulder -20.298116 13.889535 -16.056093
LeftArm 20.531865 -5.148270 -74.410143
LeftForeArm 14.091623 -0.000000 11.219545
LeftHand 0.136430 -0.000000 -5.279067
LeftHandThumb1 -26.253704 0.000000 33.147579
RightShoulder -2.912986 -0.803856 -8.475634
RightArm 22.413117 -42.966599 17.345820
RightForeArm 15.949933 -0.000000 114.503437
RightHand 9.286377 0.000000 14.450349
RightHandThumb1 -24.326973 -0.000000 -32.862282
LeftUpLeg 12.428007 14.598355 7.526994
LeftLeg -9.100890 -0.000000 0.000000
LeftFoot -15.876587 27.258238 -8.954736
LeftToeBase 22.436334 -0.000000 -0.000000
RightUpLeg 9.137605 -3.486887 4.411159
RightLeg -5.116101 -0.000000 0.000000
RightFoot -4.315881 -28.892963 3.369217
RightToeBase 13.771575 -0.000000 -0.000000
821
root -5.508255 35.222255 -9.649456 -1.784924 -5.464333 -5.895381
Spine -1.873745 -0.666262 10.569822
Head 3.866224 4.078416 -8.857089
LeftShoulder -20.272496 13.879446 -16.034001
LeftArm 20.550518 -5.161553 -74.412973
LeftForeArm 14.129534 -0.000000 11.188787
LeftHand 0.183562 -0.000000 -5.249461
LeftHandThumb1 -26.253704 0.000000 33.147579
RightShoulder -2.866013 -0.878080 -8.488977
RightArm 22.818684 -43.373823 16.929133
RightForeArm 16.060079 -0.000000 114.739080
RightHand 9.290005 -0.000000 15.218659
RightHandThumb1 -24.326973 -0.000000 -32.862282
LeftUpLeg 12.428527 14.601838 7.521036
LeftLeg -9.102362 -0.000000 0.000000
LeftFoot -15.863517 27.235895 -8.951201
LeftToeBase 22.417461 -0.000000 -0.000000
RightUpLeg 9.139495 -3.487181 4.404922
RightLeg -5.116467 -0.000000 0.000000
RightFoot -4.323717 -28.907654 3.371953
RightToeBase 13.764981 -0.000000 -0.000000
822
root -5.507700 35.221945 -9.650888 -1.785233 -5.448454 -5.897710
Spine -1.873993 -0.661357 10.565922
Head 3.877543 4.033024 -8.775652
LeftShoulder -20.261517 13.868680 -16.016087
LeftArm 20.576749 -5.173244 -74.423694
LeftForeArm 14.129955 -0.000000 11.165248
LeftHand 0.205457 0.000000 -5.253320
LeftHandThumb1 -26.253704 0.000000 33.147579
RightShoulder -2.807134 -0.885083 -8.530789
RightArm 23.155045 -43.840968 16.594918
RightForeArm 16.046147 -0.000000 114.951831
RightHand 9.280157 -0.000000 15.690809
RightHandThumb1 -24.326973 -0.000000 -32.862282
LeftUpLeg 12.425589 14.591641 7.520584
LeftLeg -9.111987 -0.000000 0.000000
LeftFoot -15.849745 27.243518 -8.931902
LeftToeBase 22.399865 -0.000000 -0.000000
RightUpLeg 9.139301 -3.481633 4.410098
RightLeg -5.118539 -0.000000 0.000000
RightFoot -4.315692 -28.946632 3.348568
RightToeBase 13.786941 -0.000000 -0.000000
823
root -5.506704 35.221798 -9.651854 -1.784885 -5.441218 -5.896661
Spine -1.878767 -0.629508 10.562232
Head 3.897931 3.958984 -8.706976
LeftShoulder -20.229041 13.865022 -16.003885
LeftArm 20.594136 -5.214618 -74.439868
LeftForeArm 14.191907 0.000000 11.158891
LeftHand 0.207432 -0.000000 -5.244855
LeftHandThumb1 -26.253704 0.000000 33.147579
RightShoulder -2.769363 -0.910891 -8.557383
RightArm 23.513337 -44.265327 16.210926
RightForeArm 16.049008 -0.000000 115.195433
RightHand 9.239657 0.000000 16.135951
RightHandThumb1 -24.326973 -0.000000 -32.862282
LeftUpLeg 12.422535 14.604602 7.519827
LeftLeg -9.111550 -0.000000 0.000000
LeftFoot -15.843323 27.230069 -8.910093
LeftToeBase 22.397811 -0.000000 -0.000000
RightUpLeg 9.134164 -3.492841 4.406880
RightLeg -5.113141 -0.000000 0.000000
RightFoot -4.322234 -28.936784 3.359391
RightToeBase 13.778698 -0.000000 -0.000000
